<mxfile host="app.diagrams.net" modified="2023-06-07T10:40:24.120Z" agent="Mozilla/5.0 (Windows NT 10.0; Win64; x64) AppleWebKit/537.36 (KHTML, like Gecko) Chrome/114.0.0.0 Safari/537.36" version="21.3.7" etag="XnsZIrpz9oMiYQHDhV5G" type="github">
  <diagram name="Pagina-1" id="r-fgVB36t-QS06M4w2zU">
    <mxGraphModel>
      <root>
        <mxCell id="0" />
        <mxCell id="1" parent="0" />
      </root>
    </mxGraphModel>
  </diagram>
</mxfile>
